<?xml version="1.0" encoding="UTF-8"?>
<svg width="246.89mm" height="70.154mm" version="1.1" viewBox="0 0 246.89 70.154" xmlns="http://www.w3.org/2000/svg">
  <g transform="translate(596.67 139.49)">
    <g transform="matrix(.035278 0 0 -.035278 -596.72 -69.37)">
      <path d="m4480 1970c-58-11-128-24-157-29-28-6-82-19-120-30-37-10-83-22-101-26-55-11-362-114-467-157-134-54-287-134-336-176-31-27-39-40-37-61 3-22 8-26 40-29 40-3 82 13 73 29-4 5-17 9-31 9-57 0-21 30 136 113 210 110 636 253 890 298 304 54 392 51 435-14 13-21 14-32 4-73-23-98-80-188-205-329-53-60-72-74-117-88-30-10-104-42-165-71-265-130-498-307-490-373 3-27 6-28 58-31 48-2 65 3 143 42 117 60 318 209 442 327 99 94 102 96 166 108 94 16 174 14 189-4 10-12 8-21-14-49-37-50-94-93-236-181-161-101-246-161-254-181-8-21 1-34 22-34 18 0 256 160 402 271 82 62 245 148 257 135 3-3-16-25-43-48s-89-81-139-128c-154-148-211-189-362-263-79-38-143-75-143-82 0-14 46-55 61-55 5 0 9 12 9 28 0 24 10 32 85 69 47 23 85 39 85 36s-12-20-27-39c-52-61-233-337-233-353 0-6 10-11 23-11 18 0 34 17 72 78 27 42 95 146 152 229l104 153 112 57c61 32 115 59 118 61 4 2 5-7 2-18-4-13 0-25 7-30 22-14 67 16 109 74 51 68 173 136 245 136 31 0 46-4 46-13 0-18-44-57-112-101-39-24-58-42-58-56 0-37 39-22 149 56 97 70 184 121 248 145 46 17 20-11-46-49-69-40-88-60-78-86 17-45 133-4 288 100l98 66 25-20 26-20-36-27c-27-21-34-33-32-53 3-24 8-27 43-30 22-2 58 2 79 8 34 10 42 10 52-4 29-40 128-5 166 60 16 28 26 34 42 30 12-3 53-6 92-6 70 0 71 0 85-32 30-69 133-98 344-100 117-2 138 1 208 25 88 31 127 53 127 73 0 19-24 17-68-5-81-41-158-53-302-48-137 5-204 20-242 54-29 26-21 41 30 57 68 20 120 49 165 91 52 48 47 70-15 69-40 0-60-9-132-58-47-31-90-64-94-73-7-12-27-16-85-17-65-1-79 2-99 22-29 27-48 28-79 4-87-65-192-112-249-111-29 0 32 39 71 45 53 9 49 26-10 47-41 14-50 22-53 45-2 15-10 28-19 30-17 3-120-57-206-121-54-39-141-82-150-74-3 3 10 13 29 22 89 46 121 92 79 115-35 18-72 11-143-27l-69-38-18 24c-18 23-22 24-117 18-116-6-179-26-214-67-14-16-65-52-113-80-133-76-132-68 13 59 132 117 160 146 160 171 0 18-7 20-57 20-40 0-68-6-91-20-41-25-44-25-36 4 4 18-2 29-28 51-32 27-34 28-136 22l-103-6 53 58c96 103 179 249 192 336 19 123-133 172-384 125zm2065-580c-9-15-107-70-124-70-14 0 83 73 110 82 18 7 23 2 14-12zm-2119-83c-111-98-331-257-411-297-319-158-19 110 320 287 66 34 127 62 135 62s-12-23-44-52zm1624-77c0-10-32-30-49-30-19 0-12 17 12 28 28 14 37 14 37 2z"/>
      <path d="m1142 1639c-68-12-246-81-382-148-116-58-305-141-319-141-5 0-33-11-62-24-30-13-103-45-164-70-159-67-209-97-213-123-4-30 13-29 52 1 49 37 280 146 310 146 5 0 27 9 50 20s84 36 136 55c52 20 165 70 250 110 212 101 323 137 424 139 64 1 80-2 90-16 15-25-32-108-115-205l-66-76-109-37c-194-65-337-151-455-271-77-78-104-126-97-171 5-39 64-36 146 7 95 50 286 196 424 325 104 96 122 109 162 115 62 10 116-1 116-23 0-9-42-57-92-107-81-80-120-108-303-217-195-116-247-158-197-158 28 0 238 120 343 196 53 38 257 140 265 132 3-3-23-27-58-54-35-26-101-85-148-129-79-76-120-106-120-87 0 5 17 24 38 42 30 28 34 35 19 38-20 4-117-73-117-94 0-7 9-18 21-24 19-11 12-20-103-138-241-248-460-570-434-637 11-29 60-17 97 23 67 71 139 164 134 172-10 16-29 1-103-80-40-44-78-80-84-80-26 0 147 268 265 409 119 141 315 338 345 346 29 7 131 51 275 118 89 41 127 46 62 8-75-44-12-83 65-40 37 21 42 21 56 7 13-12 24-13 62-6 62 13 195 77 255 123 41 31 48 34 54 19 4-11-2-24-18-36-58-47-79-69-79-85 0-14 10-15 79-10 76 5 80 4 83-16 5-39 90-33 263 18 15 4 23 0 30-17 13-29 51-34 100-14 23 10 51 13 78 10 50-7 149 17 218 52 27 13 54 24 61 24 21-1-67-76-130-111-210-117-459-315-583-462-40-48-49-65-49-97 0-34 4-41 26-46 75-19 187 55 334 222 62 71 174 193 249 270 106 110 149 148 196 171 91 45 223 95 237 91 7-3-20-22-60-44-73-40-91-59-72-78 6-6 38 5 97 36 49 25 125 58 169 72l82 27 30-31c26-25 38-30 80-30 96 0 250 66 199 86-8 3-28-1-44-9-50-26-150-42-180-28-20 9-23 15-15 23 16 16 15 35-2 41-7 3-43-5-79-17-52-18-67-19-71-9-12 31-151 4-275-53-41-19-76-32-78-30s12 20 31 40c20 19 36 42 36 51 0 21-36 19-68-4-47-32-188-100-235-112-70-17-75-7-18 34 28 20 51 44 51 52 0 29-33 16-116-47-51-38-140-76-151-64-11 11 9 24 138 89 138 71 537 330 614 400 45 41 49 47 35 61s-21 15-62 2c-130-39-460-253-660-428-71-62-104-77-233-109-143-34-147-25-21 46 47 26 93 56 102 66 15 17 15 19 0 25-10 4-51-13-106-45-79-45-183-81-230-81-23 1 27 39 88 67 60 28 63 48 9 48-42 0-42 0-22 48 26 62-7 64-73 4-66-61-130-103-211-137-70-30-107-38-97-21 3 5 47 37 97 71 61 42 89 67 85 76-4 10 7 20 29 31 35 17 49 53 20 53-8 0-72-29-142-64-144-72-532-241-538-234-5 5 70 72 195 172 91 73 107 93 93 107-10 10-85-8-148-36l-40-17 57 60c60 63 78 103 58 127-18 22-78 38-121 32-22-3-39-2-39 1 0 4 28 41 61 82 100 124 122 186 78 226-24 22-115 28-197 13zm1899-243c-7-8-60-45-119-82s-174-111-257-164c-189-121-255-159-255-145 0 9 244 188 348 256 111 73 281 163 290 154 3-2-1-11-7-19zm-2026-213c-181-170-425-343-485-343-87 0 151 239 330 330 56 29 190 79 210 79 8 0-16-30-55-66zm635-153c-56-45-143-100-158-100-23 0-9 11 87 69 89 54 113 64 71 31zm834-343c-60-62-154-161-208-221-103-113-178-171-233-182-42-8-43 9-4 62s212 220 289 278c93 71 246 175 256 176 6 0-39-51-100-113z"/>
    </g>
  </g>
</svg>
